<mxfile host="app.diagrams.net" modified="2023-10-03T16:28:46.601Z" agent="Mozilla/5.0 (Windows NT 10.0; Win64; x64) AppleWebKit/537.36 (KHTML, like Gecko) Chrome/117.0.0.0 Safari/537.36" etag="SOvssVLaMaJsqgbsoinA" version="22.0.2" type="github" pages="2">
  <diagram name="Homepage" id="f1b7ffb7-ca1e-a977-7cf5-a751b3c06c05">
    <mxGraphModel dx="1434" dy="800" grid="1" gridSize="10" guides="1" tooltips="1" connect="1" arrows="1" fold="1" page="1" pageScale="1" pageWidth="826" pageHeight="1169" background="none" math="0" shadow="0">
      <root>
        <mxCell id="0" />
        <mxCell id="1" parent="0" />
        <mxCell id="13" value="" style="verticalLabelPosition=bottom;verticalAlign=top;strokeWidth=1;shape=mxgraph.mockup.graphics.iconGrid;strokeColor=#CCCCCC;gridSize=1,1;movable=1;resizable=1;rotatable=1;deletable=1;editable=1;locked=0;connectable=1;" parent="1" vertex="1">
          <mxGeometry x="200" y="80" width="560" height="640" as="geometry" />
        </mxCell>
        <mxCell id="2" value="ShiftTalkers" style="text;spacingTop=-5;fontSize=24;fontStyle=0;align=left;verticalAlign=middle;" parent="1" vertex="1">
          <mxGeometry x="70" y="20" width="170" height="40" as="geometry" />
        </mxCell>
        <mxCell id="3" value="" style="line;strokeWidth=1" parent="1" vertex="1">
          <mxGeometry x="20" y="60" width="780" height="20" as="geometry" />
        </mxCell>
        <mxCell id="4" value="" style="line;strokeWidth=1;rotation=90;" parent="1" vertex="1">
          <mxGeometry x="-505.5" y="722.5" width="1329" height="25" as="geometry" />
        </mxCell>
        <mxCell id="5" value="Home" style="text;spacingTop=-5;align=left;verticalAlign=middle;fontSize=16;" parent="1" vertex="1">
          <mxGeometry x="70" y="80" width="80" height="30" as="geometry" />
        </mxCell>
        <mxCell id="9" value="Lorem ipsum dolor sit amet, consectetur adipisicing elit, sed do eiusmod tempor incididunt ut labore et dolore magna aliqua. Ut enim ad minim veniam, quis nostrud exercitation ullamco laboris nisi ut aliquip ex ea commodo consequat. Duis aute irure dolor in reprehenderit in voluptate velit esse cillum dolore eu fugiat nulla pariatur. Excepteur sint occaecat cupidatat non proident, sunt in culpa qui officia deserunt mollit anim id est laborum.&lt;br style=&quot;font-size: 12px;&quot;&gt;" style="text;spacingTop=-5;whiteSpace=wrap;align=left;html=1;fillColor=default;gradientColor=none;labelBorderColor=none;fontSize=12;" parent="1" vertex="1">
          <mxGeometry x="240" y="155" width="480" height="95" as="geometry" />
        </mxCell>
        <mxCell id="20" value="" style="verticalLabelPosition=bottom;verticalAlign=top;strokeWidth=1;shape=mxgraph.mockup.graphics.iconGrid;strokeColor=#CCCCCC;gridSize=1,1;" parent="1" vertex="1">
          <mxGeometry x="20" y="20" width="40" height="40" as="geometry" />
        </mxCell>
        <mxCell id="21" value="Logo" style="text;spacingTop=-5;align=center;verticalAlign=middle;" parent="1" vertex="1">
          <mxGeometry x="20" y="20" width="40" height="40" as="geometry" />
        </mxCell>
        <mxCell id="38" value="Like" style="text;spacingTop=-5;" parent="1" vertex="1">
          <mxGeometry x="240.0000000000001" y="460.0000000000001" width="30" height="20" as="geometry" />
        </mxCell>
        <mxCell id="PjiMrtDM9XSwj5vkr_bd-61" value="" style="verticalLabelPosition=bottom;verticalAlign=top;strokeWidth=1;shape=mxgraph.mockup.graphics.iconGrid;strokeColor=#CCCCCC;gridSize=1,1;" vertex="1" parent="1">
          <mxGeometry x="20" y="80" width="40" height="30" as="geometry" />
        </mxCell>
        <mxCell id="PjiMrtDM9XSwj5vkr_bd-62" value="Home Logo" style="text;spacingTop=-5;align=center;whiteSpace=wrap;verticalAlign=middle;" vertex="1" parent="1">
          <mxGeometry x="20" y="80" width="40" height="30" as="geometry" />
        </mxCell>
        <mxCell id="PjiMrtDM9XSwj5vkr_bd-63" value="" style="verticalLabelPosition=bottom;verticalAlign=top;strokeWidth=1;shape=mxgraph.mockup.graphics.iconGrid;strokeColor=#CCCCCC;gridSize=1,1;" vertex="1" parent="1">
          <mxGeometry x="20" y="120" width="40" height="30" as="geometry" />
        </mxCell>
        <mxCell id="PjiMrtDM9XSwj5vkr_bd-64" value="Explore Logo" style="text;spacingTop=-5;align=center;whiteSpace=wrap;verticalAlign=middle;fontSize=12;" vertex="1" parent="1">
          <mxGeometry x="20" y="120" width="40" height="30" as="geometry" />
        </mxCell>
        <mxCell id="PjiMrtDM9XSwj5vkr_bd-65" value="Explore" style="text;spacingTop=-5;align=left;verticalAlign=middle;fontSize=16;" vertex="1" parent="1">
          <mxGeometry x="70" y="120" width="80" height="30" as="geometry" />
        </mxCell>
        <mxCell id="PjiMrtDM9XSwj5vkr_bd-70" value="Profile image" style="ellipse;whiteSpace=wrap;html=1;aspect=fixed;" vertex="1" parent="1">
          <mxGeometry x="240" y="100" width="40" height="40" as="geometry" />
        </mxCell>
        <mxCell id="PjiMrtDM9XSwj5vkr_bd-71" value="Username" style="text;spacingTop=-5;fontSize=16;verticalAlign=middle;fontStyle=1" vertex="1" parent="1">
          <mxGeometry x="290" y="100" width="100" height="25" as="geometry" />
        </mxCell>
        <mxCell id="PjiMrtDM9XSwj5vkr_bd-72" value="Dislike" style="text;spacingTop=-5;" vertex="1" parent="1">
          <mxGeometry x="280.0000000000001" y="460.0000000000001" width="30" height="20" as="geometry" />
        </mxCell>
        <mxCell id="PjiMrtDM9XSwj5vkr_bd-73" value="" style="verticalLabelPosition=bottom;verticalAlign=top;strokeWidth=1;shape=mxgraph.mockup.graphics.iconGrid;strokeColor=#CCCCCC;gridSize=1,1;" vertex="1" parent="1">
          <mxGeometry x="240" y="490" width="480" height="200" as="geometry" />
        </mxCell>
        <mxCell id="PjiMrtDM9XSwj5vkr_bd-74" value="**Comments section**" style="text;spacingTop=-5;align=left;verticalAlign=bottom;fontSize=16;rotation=270;fontStyle=1" vertex="1" parent="1">
          <mxGeometry x="128.5" y="573.5" width="194" height="27" as="geometry" />
        </mxCell>
        <mxCell id="PjiMrtDM9XSwj5vkr_bd-75" value="Created (mm/dd)" style="text;spacingTop=-5;fontSize=10;verticalAlign=top;fontStyle=0" vertex="1" parent="1">
          <mxGeometry x="290" y="125" width="100" height="20" as="geometry" />
        </mxCell>
        <mxCell id="PjiMrtDM9XSwj5vkr_bd-77" value="" style="verticalLabelPosition=bottom;verticalAlign=top;strokeWidth=1;shape=mxgraph.mockup.graphics.iconGrid;strokeColor=#CCCCCC;gridSize=1,1;" vertex="1" parent="1">
          <mxGeometry x="240" y="250" width="480" height="200" as="geometry" />
        </mxCell>
        <mxCell id="PjiMrtDM9XSwj5vkr_bd-78" value="Profile image" style="ellipse;whiteSpace=wrap;html=1;aspect=fixed;" vertex="1" parent="1">
          <mxGeometry x="760" y="20" width="40" height="40" as="geometry" />
        </mxCell>
        <mxCell id="PjiMrtDM9XSwj5vkr_bd-76" value="Post images" style="text;spacingTop=-5;align=center;verticalAlign=middle;fontSize=36;fontColor=#CCCCCC;rotation=0;" vertex="1" parent="1">
          <mxGeometry x="240" y="250" width="480" height="200" as="geometry" />
        </mxCell>
        <mxCell id="PjiMrtDM9XSwj5vkr_bd-79" value="Follow" style="text;spacingTop=-5;align=right;" vertex="1" parent="1">
          <mxGeometry x="690.0000000000001" y="460.0000000000001" width="30" height="20" as="geometry" />
        </mxCell>
        <mxCell id="PjiMrtDM9XSwj5vkr_bd-80" value="                      Lorem ipsum dolor sit amet, consectetur adipisicing elit, sed do eiusmod tempor incididunt ut labore et dolore magna aliqua." style="text;spacingTop=-5;fontSize=12;verticalAlign=top;fontStyle=0;whiteSpace=wrap;" vertex="1" parent="1">
          <mxGeometry x="250" y="530" width="460" height="30" as="geometry" />
        </mxCell>
        <mxCell id="PjiMrtDM9XSwj5vkr_bd-83" value="(Number of likes)" style="text;spacingTop=-5;align=left;verticalAlign=bottom;fontSize=12;rotation=0;fontStyle=0" vertex="1" parent="1">
          <mxGeometry x="250" y="500" width="194" height="20" as="geometry" />
        </mxCell>
        <mxCell id="PjiMrtDM9XSwj5vkr_bd-84" value="Username" style="text;spacingTop=-5;fontStyle=1;fontSize=13;" vertex="1" parent="1">
          <mxGeometry x="250" y="530" width="70" height="20" as="geometry" />
        </mxCell>
        <mxCell id="PjiMrtDM9XSwj5vkr_bd-85" value="                      Lorem ipsum dolor sit amet, consectetur adipisicing elit, sed do eiusmod tempor incididunt ut labore et dolore magna aliqua." style="text;spacingTop=-5;fontSize=12;verticalAlign=top;fontStyle=0;whiteSpace=wrap;" vertex="1" parent="1">
          <mxGeometry x="250" y="567.5" width="460" height="30" as="geometry" />
        </mxCell>
        <mxCell id="PjiMrtDM9XSwj5vkr_bd-86" value="Username" style="text;spacingTop=-5;fontStyle=1;fontSize=13;" vertex="1" parent="1">
          <mxGeometry x="250" y="567.5" width="70" height="20" as="geometry" />
        </mxCell>
        <mxCell id="PjiMrtDM9XSwj5vkr_bd-87" value="                      Lorem ipsum dolor sit amet, consectetur adipisicing elit, sed do eiusmod tempor incididunt ut labore et dolore magna aliqua." style="text;spacingTop=-5;fontSize=12;verticalAlign=top;fontStyle=0;whiteSpace=wrap;" vertex="1" parent="1">
          <mxGeometry x="250" y="610" width="460" height="30" as="geometry" />
        </mxCell>
        <mxCell id="PjiMrtDM9XSwj5vkr_bd-88" value="                      Lorem ipsum dolor sit amet, consectetur adipisicing elit, sed do eiusmod tempor incididunt ut labore et dolore magna aliqua." style="text;spacingTop=-5;fontSize=12;verticalAlign=top;fontStyle=0;whiteSpace=wrap;" vertex="1" parent="1">
          <mxGeometry x="250" y="650" width="460" height="30" as="geometry" />
        </mxCell>
        <mxCell id="PjiMrtDM9XSwj5vkr_bd-89" value="Username" style="text;spacingTop=-5;fontStyle=1;fontSize=13;" vertex="1" parent="1">
          <mxGeometry x="250" y="610" width="70" height="20" as="geometry" />
        </mxCell>
        <mxCell id="PjiMrtDM9XSwj5vkr_bd-90" value="Username" style="text;spacingTop=-5;fontStyle=1;fontSize=13;" vertex="1" parent="1">
          <mxGeometry x="250" y="650" width="70" height="20" as="geometry" />
        </mxCell>
        <mxCell id="PjiMrtDM9XSwj5vkr_bd-133" value="" style="verticalLabelPosition=bottom;verticalAlign=top;strokeWidth=1;shape=mxgraph.mockup.graphics.iconGrid;strokeColor=#CCCCCC;gridSize=1,1;movable=1;resizable=1;rotatable=1;deletable=1;editable=1;locked=0;connectable=1;" vertex="1" parent="1">
          <mxGeometry x="200" y="760" width="560" height="640" as="geometry" />
        </mxCell>
        <mxCell id="PjiMrtDM9XSwj5vkr_bd-134" value="Lorem ipsum dolor sit amet, consectetur adipisicing elit, sed do eiusmod tempor incididunt ut labore et dolore magna aliqua. Ut enim ad minim veniam, quis nostrud exercitation ullamco laboris nisi ut aliquip ex ea commodo consequat. Duis aute irure dolor in reprehenderit in voluptate velit esse cillum dolore eu fugiat nulla pariatur. Excepteur sint occaecat cupidatat non proident, sunt in culpa qui officia deserunt mollit anim id est laborum.&lt;br style=&quot;font-size: 12px;&quot;&gt;" style="text;spacingTop=-5;whiteSpace=wrap;align=left;html=1;fillColor=default;gradientColor=none;labelBorderColor=none;fontSize=12;" vertex="1" parent="1">
          <mxGeometry x="240" y="835" width="480" height="95" as="geometry" />
        </mxCell>
        <mxCell id="PjiMrtDM9XSwj5vkr_bd-135" value="Like" style="text;spacingTop=-5;" vertex="1" parent="1">
          <mxGeometry x="240.0000000000001" y="1140" width="30" height="20" as="geometry" />
        </mxCell>
        <mxCell id="PjiMrtDM9XSwj5vkr_bd-136" value="Profile image" style="ellipse;whiteSpace=wrap;html=1;aspect=fixed;" vertex="1" parent="1">
          <mxGeometry x="240" y="780" width="40" height="40" as="geometry" />
        </mxCell>
        <mxCell id="PjiMrtDM9XSwj5vkr_bd-137" value="Username" style="text;spacingTop=-5;fontSize=16;verticalAlign=middle;fontStyle=1" vertex="1" parent="1">
          <mxGeometry x="290" y="780" width="100" height="25" as="geometry" />
        </mxCell>
        <mxCell id="PjiMrtDM9XSwj5vkr_bd-138" value="Dislike" style="text;spacingTop=-5;" vertex="1" parent="1">
          <mxGeometry x="280.0000000000001" y="1140" width="30" height="20" as="geometry" />
        </mxCell>
        <mxCell id="PjiMrtDM9XSwj5vkr_bd-139" value="" style="verticalLabelPosition=bottom;verticalAlign=top;strokeWidth=1;shape=mxgraph.mockup.graphics.iconGrid;strokeColor=#CCCCCC;gridSize=1,1;" vertex="1" parent="1">
          <mxGeometry x="240" y="1170" width="480" height="200" as="geometry" />
        </mxCell>
        <mxCell id="PjiMrtDM9XSwj5vkr_bd-140" value="**Comments section**" style="text;spacingTop=-5;align=left;verticalAlign=bottom;fontSize=16;rotation=270;fontStyle=1" vertex="1" parent="1">
          <mxGeometry x="128.5" y="1253.5" width="194" height="27" as="geometry" />
        </mxCell>
        <mxCell id="PjiMrtDM9XSwj5vkr_bd-141" value="Created (mm/dd)" style="text;spacingTop=-5;fontSize=10;verticalAlign=top;fontStyle=0" vertex="1" parent="1">
          <mxGeometry x="290" y="805" width="100" height="20" as="geometry" />
        </mxCell>
        <mxCell id="PjiMrtDM9XSwj5vkr_bd-142" value="" style="verticalLabelPosition=bottom;verticalAlign=top;strokeWidth=1;shape=mxgraph.mockup.graphics.iconGrid;strokeColor=#CCCCCC;gridSize=1,1;" vertex="1" parent="1">
          <mxGeometry x="240" y="930" width="480" height="200" as="geometry" />
        </mxCell>
        <mxCell id="PjiMrtDM9XSwj5vkr_bd-143" value="Post images" style="text;spacingTop=-5;align=center;verticalAlign=middle;fontSize=36;fontColor=#CCCCCC;rotation=0;" vertex="1" parent="1">
          <mxGeometry x="240" y="930" width="480" height="200" as="geometry" />
        </mxCell>
        <mxCell id="PjiMrtDM9XSwj5vkr_bd-144" value="Follow" style="text;spacingTop=-5;align=right;" vertex="1" parent="1">
          <mxGeometry x="690.0000000000001" y="1140" width="30" height="20" as="geometry" />
        </mxCell>
        <mxCell id="PjiMrtDM9XSwj5vkr_bd-145" value="                      Lorem ipsum dolor sit amet, consectetur adipisicing elit, sed do eiusmod tempor incididunt ut labore et dolore magna aliqua." style="text;spacingTop=-5;fontSize=12;verticalAlign=top;fontStyle=0;whiteSpace=wrap;" vertex="1" parent="1">
          <mxGeometry x="250" y="1210" width="460" height="30" as="geometry" />
        </mxCell>
        <mxCell id="PjiMrtDM9XSwj5vkr_bd-146" value="(Number of likes)" style="text;spacingTop=-5;align=left;verticalAlign=bottom;fontSize=12;rotation=0;fontStyle=0" vertex="1" parent="1">
          <mxGeometry x="250" y="1180" width="194" height="20" as="geometry" />
        </mxCell>
        <mxCell id="PjiMrtDM9XSwj5vkr_bd-147" value="Username" style="text;spacingTop=-5;fontStyle=1;fontSize=13;" vertex="1" parent="1">
          <mxGeometry x="250" y="1210" width="70" height="20" as="geometry" />
        </mxCell>
        <mxCell id="PjiMrtDM9XSwj5vkr_bd-148" value="                      Lorem ipsum dolor sit amet, consectetur adipisicing elit, sed do eiusmod tempor incididunt ut labore et dolore magna aliqua." style="text;spacingTop=-5;fontSize=12;verticalAlign=top;fontStyle=0;whiteSpace=wrap;" vertex="1" parent="1">
          <mxGeometry x="250" y="1247.5" width="460" height="30" as="geometry" />
        </mxCell>
        <mxCell id="PjiMrtDM9XSwj5vkr_bd-149" value="Username" style="text;spacingTop=-5;fontStyle=1;fontSize=13;" vertex="1" parent="1">
          <mxGeometry x="250" y="1247.5" width="70" height="20" as="geometry" />
        </mxCell>
        <mxCell id="PjiMrtDM9XSwj5vkr_bd-150" value="                      Lorem ipsum dolor sit amet, consectetur adipisicing elit, sed do eiusmod tempor incididunt ut labore et dolore magna aliqua." style="text;spacingTop=-5;fontSize=12;verticalAlign=top;fontStyle=0;whiteSpace=wrap;" vertex="1" parent="1">
          <mxGeometry x="250" y="1290" width="460" height="30" as="geometry" />
        </mxCell>
        <mxCell id="PjiMrtDM9XSwj5vkr_bd-151" value="                      Lorem ipsum dolor sit amet, consectetur adipisicing elit, sed do eiusmod tempor incididunt ut labore et dolore magna aliqua." style="text;spacingTop=-5;fontSize=12;verticalAlign=top;fontStyle=0;whiteSpace=wrap;" vertex="1" parent="1">
          <mxGeometry x="250" y="1330" width="460" height="30" as="geometry" />
        </mxCell>
        <mxCell id="PjiMrtDM9XSwj5vkr_bd-152" value="Username" style="text;spacingTop=-5;fontStyle=1;fontSize=13;" vertex="1" parent="1">
          <mxGeometry x="250" y="1290" width="70" height="20" as="geometry" />
        </mxCell>
        <mxCell id="PjiMrtDM9XSwj5vkr_bd-153" value="Username" style="text;spacingTop=-5;fontStyle=1;fontSize=13;" vertex="1" parent="1">
          <mxGeometry x="250" y="1330" width="70" height="20" as="geometry" />
        </mxCell>
      </root>
    </mxGraphModel>
  </diagram>
  <diagram name="Copy of Homepage" id="beGQo7yEDCVSSN53gGrN">
    <mxGraphModel dx="1434" dy="800" grid="1" gridSize="10" guides="1" tooltips="1" connect="1" arrows="1" fold="1" page="1" pageScale="1" pageWidth="826" pageHeight="1169" background="none" math="0" shadow="0">
      <root>
        <mxCell id="J5niuQEOKbg_7ZnScC5T-0" />
        <mxCell id="J5niuQEOKbg_7ZnScC5T-1" parent="J5niuQEOKbg_7ZnScC5T-0" />
        <mxCell id="J5niuQEOKbg_7ZnScC5T-2" value="" style="verticalLabelPosition=bottom;verticalAlign=top;strokeWidth=1;shape=mxgraph.mockup.graphics.iconGrid;strokeColor=#CCCCCC;gridSize=1,1;movable=1;resizable=1;rotatable=1;deletable=1;editable=1;locked=0;connectable=1;" vertex="1" parent="J5niuQEOKbg_7ZnScC5T-1">
          <mxGeometry x="200" y="80" width="560" height="640" as="geometry" />
        </mxCell>
        <mxCell id="J5niuQEOKbg_7ZnScC5T-3" value="ShiftTalkers" style="text;spacingTop=-5;fontSize=24;fontStyle=0;align=left;verticalAlign=middle;" vertex="1" parent="J5niuQEOKbg_7ZnScC5T-1">
          <mxGeometry x="70" y="20" width="170" height="40" as="geometry" />
        </mxCell>
        <mxCell id="J5niuQEOKbg_7ZnScC5T-4" value="" style="line;strokeWidth=1" vertex="1" parent="J5niuQEOKbg_7ZnScC5T-1">
          <mxGeometry x="20" y="60" width="780" height="20" as="geometry" />
        </mxCell>
        <mxCell id="J5niuQEOKbg_7ZnScC5T-5" value="" style="line;strokeWidth=1;rotation=90;" vertex="1" parent="J5niuQEOKbg_7ZnScC5T-1">
          <mxGeometry x="-505.5" y="722.5" width="1329" height="25" as="geometry" />
        </mxCell>
        <mxCell id="J5niuQEOKbg_7ZnScC5T-6" value="Home" style="text;spacingTop=-5;align=left;verticalAlign=middle;fontSize=16;" vertex="1" parent="J5niuQEOKbg_7ZnScC5T-1">
          <mxGeometry x="70" y="80" width="80" height="30" as="geometry" />
        </mxCell>
        <mxCell id="J5niuQEOKbg_7ZnScC5T-7" value="Lorem ipsum dolor sit amet, consectetur adipisicing elit, sed do eiusmod tempor incididunt ut labore et dolore magna aliqua. Ut enim ad minim veniam, quis nostrud exercitation ullamco laboris nisi ut aliquip ex ea commodo consequat. Duis aute irure dolor in reprehenderit in voluptate velit esse cillum dolore eu fugiat nulla pariatur. Excepteur sint occaecat cupidatat non proident, sunt in culpa qui officia deserunt mollit anim id est laborum.&lt;br style=&quot;font-size: 12px;&quot;&gt;" style="text;spacingTop=-5;whiteSpace=wrap;align=left;html=1;fillColor=default;gradientColor=none;labelBorderColor=none;fontSize=12;" vertex="1" parent="J5niuQEOKbg_7ZnScC5T-1">
          <mxGeometry x="240" y="155" width="480" height="95" as="geometry" />
        </mxCell>
        <mxCell id="J5niuQEOKbg_7ZnScC5T-8" value="" style="verticalLabelPosition=bottom;verticalAlign=top;strokeWidth=1;shape=mxgraph.mockup.graphics.iconGrid;strokeColor=#CCCCCC;gridSize=1,1;" vertex="1" parent="J5niuQEOKbg_7ZnScC5T-1">
          <mxGeometry x="20" y="20" width="40" height="40" as="geometry" />
        </mxCell>
        <mxCell id="J5niuQEOKbg_7ZnScC5T-9" value="Logo" style="text;spacingTop=-5;align=center;verticalAlign=middle;" vertex="1" parent="J5niuQEOKbg_7ZnScC5T-1">
          <mxGeometry x="20" y="20" width="40" height="40" as="geometry" />
        </mxCell>
        <mxCell id="J5niuQEOKbg_7ZnScC5T-10" value="Like" style="text;spacingTop=-5;" vertex="1" parent="J5niuQEOKbg_7ZnScC5T-1">
          <mxGeometry x="240.0000000000001" y="460.0000000000001" width="30" height="20" as="geometry" />
        </mxCell>
        <mxCell id="J5niuQEOKbg_7ZnScC5T-11" value="" style="verticalLabelPosition=bottom;verticalAlign=top;strokeWidth=1;shape=mxgraph.mockup.graphics.iconGrid;strokeColor=#CCCCCC;gridSize=1,1;" vertex="1" parent="J5niuQEOKbg_7ZnScC5T-1">
          <mxGeometry x="20" y="80" width="40" height="30" as="geometry" />
        </mxCell>
        <mxCell id="J5niuQEOKbg_7ZnScC5T-12" value="Home Logo" style="text;spacingTop=-5;align=center;whiteSpace=wrap;verticalAlign=middle;" vertex="1" parent="J5niuQEOKbg_7ZnScC5T-1">
          <mxGeometry x="20" y="80" width="40" height="30" as="geometry" />
        </mxCell>
        <mxCell id="J5niuQEOKbg_7ZnScC5T-13" value="" style="verticalLabelPosition=bottom;verticalAlign=top;strokeWidth=1;shape=mxgraph.mockup.graphics.iconGrid;strokeColor=#CCCCCC;gridSize=1,1;" vertex="1" parent="J5niuQEOKbg_7ZnScC5T-1">
          <mxGeometry x="20" y="120" width="40" height="30" as="geometry" />
        </mxCell>
        <mxCell id="J5niuQEOKbg_7ZnScC5T-14" value="Explore Logo" style="text;spacingTop=-5;align=center;whiteSpace=wrap;verticalAlign=middle;fontSize=12;" vertex="1" parent="J5niuQEOKbg_7ZnScC5T-1">
          <mxGeometry x="20" y="120" width="40" height="30" as="geometry" />
        </mxCell>
        <mxCell id="J5niuQEOKbg_7ZnScC5T-15" value="Explore" style="text;spacingTop=-5;align=left;verticalAlign=middle;fontSize=16;" vertex="1" parent="J5niuQEOKbg_7ZnScC5T-1">
          <mxGeometry x="70" y="120" width="80" height="30" as="geometry" />
        </mxCell>
        <mxCell id="J5niuQEOKbg_7ZnScC5T-16" value="Profile image" style="ellipse;whiteSpace=wrap;html=1;aspect=fixed;" vertex="1" parent="J5niuQEOKbg_7ZnScC5T-1">
          <mxGeometry x="240" y="100" width="40" height="40" as="geometry" />
        </mxCell>
        <mxCell id="J5niuQEOKbg_7ZnScC5T-17" value="Username" style="text;spacingTop=-5;fontSize=16;verticalAlign=middle;fontStyle=1" vertex="1" parent="J5niuQEOKbg_7ZnScC5T-1">
          <mxGeometry x="290" y="100" width="100" height="25" as="geometry" />
        </mxCell>
        <mxCell id="J5niuQEOKbg_7ZnScC5T-18" value="Dislike" style="text;spacingTop=-5;" vertex="1" parent="J5niuQEOKbg_7ZnScC5T-1">
          <mxGeometry x="280.0000000000001" y="460.0000000000001" width="30" height="20" as="geometry" />
        </mxCell>
        <mxCell id="J5niuQEOKbg_7ZnScC5T-19" value="" style="verticalLabelPosition=bottom;verticalAlign=top;strokeWidth=1;shape=mxgraph.mockup.graphics.iconGrid;strokeColor=#CCCCCC;gridSize=1,1;" vertex="1" parent="J5niuQEOKbg_7ZnScC5T-1">
          <mxGeometry x="240" y="490" width="480" height="200" as="geometry" />
        </mxCell>
        <mxCell id="J5niuQEOKbg_7ZnScC5T-20" value="**Comments section**" style="text;spacingTop=-5;align=left;verticalAlign=bottom;fontSize=16;rotation=270;fontStyle=1" vertex="1" parent="J5niuQEOKbg_7ZnScC5T-1">
          <mxGeometry x="128.5" y="573.5" width="194" height="27" as="geometry" />
        </mxCell>
        <mxCell id="J5niuQEOKbg_7ZnScC5T-21" value="Created (mm/dd)" style="text;spacingTop=-5;fontSize=10;verticalAlign=top;fontStyle=0" vertex="1" parent="J5niuQEOKbg_7ZnScC5T-1">
          <mxGeometry x="290" y="125" width="100" height="20" as="geometry" />
        </mxCell>
        <mxCell id="J5niuQEOKbg_7ZnScC5T-22" value="" style="verticalLabelPosition=bottom;verticalAlign=top;strokeWidth=1;shape=mxgraph.mockup.graphics.iconGrid;strokeColor=#CCCCCC;gridSize=1,1;" vertex="1" parent="J5niuQEOKbg_7ZnScC5T-1">
          <mxGeometry x="240" y="250" width="480" height="200" as="geometry" />
        </mxCell>
        <mxCell id="J5niuQEOKbg_7ZnScC5T-23" value="Profile image" style="ellipse;whiteSpace=wrap;html=1;aspect=fixed;" vertex="1" parent="J5niuQEOKbg_7ZnScC5T-1">
          <mxGeometry x="760" y="20" width="40" height="40" as="geometry" />
        </mxCell>
        <mxCell id="J5niuQEOKbg_7ZnScC5T-24" value="Post images" style="text;spacingTop=-5;align=center;verticalAlign=middle;fontSize=36;fontColor=#CCCCCC;rotation=0;" vertex="1" parent="J5niuQEOKbg_7ZnScC5T-1">
          <mxGeometry x="240" y="250" width="480" height="200" as="geometry" />
        </mxCell>
        <mxCell id="J5niuQEOKbg_7ZnScC5T-25" value="Follow" style="text;spacingTop=-5;align=right;" vertex="1" parent="J5niuQEOKbg_7ZnScC5T-1">
          <mxGeometry x="690.0000000000001" y="460.0000000000001" width="30" height="20" as="geometry" />
        </mxCell>
        <mxCell id="J5niuQEOKbg_7ZnScC5T-26" value="                      Lorem ipsum dolor sit amet, consectetur adipisicing elit, sed do eiusmod tempor incididunt ut labore et dolore magna aliqua." style="text;spacingTop=-5;fontSize=12;verticalAlign=top;fontStyle=0;whiteSpace=wrap;" vertex="1" parent="J5niuQEOKbg_7ZnScC5T-1">
          <mxGeometry x="250" y="530" width="460" height="30" as="geometry" />
        </mxCell>
        <mxCell id="J5niuQEOKbg_7ZnScC5T-27" value="(Number of likes)" style="text;spacingTop=-5;align=left;verticalAlign=bottom;fontSize=12;rotation=0;fontStyle=0" vertex="1" parent="J5niuQEOKbg_7ZnScC5T-1">
          <mxGeometry x="250" y="500" width="194" height="20" as="geometry" />
        </mxCell>
        <mxCell id="J5niuQEOKbg_7ZnScC5T-28" value="Username" style="text;spacingTop=-5;fontStyle=1;fontSize=13;" vertex="1" parent="J5niuQEOKbg_7ZnScC5T-1">
          <mxGeometry x="250" y="530" width="70" height="20" as="geometry" />
        </mxCell>
        <mxCell id="J5niuQEOKbg_7ZnScC5T-29" value="                      Lorem ipsum dolor sit amet, consectetur adipisicing elit, sed do eiusmod tempor incididunt ut labore et dolore magna aliqua." style="text;spacingTop=-5;fontSize=12;verticalAlign=top;fontStyle=0;whiteSpace=wrap;" vertex="1" parent="J5niuQEOKbg_7ZnScC5T-1">
          <mxGeometry x="250" y="567.5" width="460" height="30" as="geometry" />
        </mxCell>
        <mxCell id="J5niuQEOKbg_7ZnScC5T-30" value="Username" style="text;spacingTop=-5;fontStyle=1;fontSize=13;" vertex="1" parent="J5niuQEOKbg_7ZnScC5T-1">
          <mxGeometry x="250" y="567.5" width="70" height="20" as="geometry" />
        </mxCell>
        <mxCell id="J5niuQEOKbg_7ZnScC5T-31" value="                      Lorem ipsum dolor sit amet, consectetur adipisicing elit, sed do eiusmod tempor incididunt ut labore et dolore magna aliqua." style="text;spacingTop=-5;fontSize=12;verticalAlign=top;fontStyle=0;whiteSpace=wrap;" vertex="1" parent="J5niuQEOKbg_7ZnScC5T-1">
          <mxGeometry x="250" y="610" width="460" height="30" as="geometry" />
        </mxCell>
        <mxCell id="J5niuQEOKbg_7ZnScC5T-32" value="                      Lorem ipsum dolor sit amet, consectetur adipisicing elit, sed do eiusmod tempor incididunt ut labore et dolore magna aliqua." style="text;spacingTop=-5;fontSize=12;verticalAlign=top;fontStyle=0;whiteSpace=wrap;" vertex="1" parent="J5niuQEOKbg_7ZnScC5T-1">
          <mxGeometry x="250" y="650" width="460" height="30" as="geometry" />
        </mxCell>
        <mxCell id="J5niuQEOKbg_7ZnScC5T-33" value="Username" style="text;spacingTop=-5;fontStyle=1;fontSize=13;" vertex="1" parent="J5niuQEOKbg_7ZnScC5T-1">
          <mxGeometry x="250" y="610" width="70" height="20" as="geometry" />
        </mxCell>
        <mxCell id="J5niuQEOKbg_7ZnScC5T-34" value="Username" style="text;spacingTop=-5;fontStyle=1;fontSize=13;" vertex="1" parent="J5niuQEOKbg_7ZnScC5T-1">
          <mxGeometry x="250" y="650" width="70" height="20" as="geometry" />
        </mxCell>
      </root>
    </mxGraphModel>
  </diagram>
</mxfile>
